/* XPM */
static char *_99d5af1223b475ca8028ef6506b6cabbMLIzxu7dpfzT81N[] = {
/* columns rows colors chars-per-pixel */
"32 32 71 1 ",
"  c #3B063A",
". c #654E2B",
"X c #67502C",
"o c #6A532E",
"O c #6E5630",
"+ c #6F5831",
"@ c #705730",
"# c #745B33",
"$ c #7A5E35",
"% c #7D6137",
"& c #7E6339",
"* c #42004E",
"= c #691749",
"- c #BD4035",
"; c #806337",
": c #826639",
"> c #85693C",
", c #896C3E",
"< c #92713F",
"1 c #8C6E41",
"2 c #957441",
"3 c #997743",
"4 c #9B7944",
"5 c #9B7E49",
"6 c #A17C46",
"7 c #A17E49",
"8 c #429058",
"9 c #9D824C",
"0 c #A1854E",
"q c #A4884F",
"w c #A38750",
"e c #A68951",
"r c #AD8E54",
"t c #AF8D5A",
"y c #B18F57",
"u c #B18E5B",
"i c #B09055",
"p c #B19056",
"a c #B29157",
"s c #B39357",
"d c #B29058",
"f c #B49359",
"g c #B79558",
"h c #B7955A",
"j c #B4925C",
"k c #B7935D",
"l c #B7935F",
"z c #B7945C",
"x c #B89759",
"c c #B9965B",
"v c #B8945F",
"b c #BC985E",
"n c #B89460",
"m c #B99460",
"M c #BB9561",
"N c #B99660",
"B c #BF9B60",
"V c #BD9862",
"C c #C19B63",
"Z c #C19C62",
"A c #C29D62",
"S c #C39E63",
"D c #C59F63",
"F c #C09B64",
"G c #C39C65",
"H c #C5A064",
"J c #CAA366",
"K c #CBA466",
"L c #CCA567",
"P c #CAA369",
"I c #CEA768",
/* pixels */
"vlyrvlZZZDZZZZZZvvZDCZHBZZCBvl<2",
"vPxxCGJLLJLLLLLLZZJLLLJLLLKLDv62",
"vVllaaf 06ee avvvvv saaabnnnee09",
"nFvvarr  <99 yvvvvv arrrhzn 99q9",
"yxvvllll ral rwqe0  0waara  vt43",
"yxvnvvvv  nn  9909 99qrar  nnv42",
"461,1,454 1,% ##>> >##,,& $&,,#@",
"24;%%$<<2  #o ..%  $o.%#  ..%$X.",
"aMvb09vVb  vb 99x  vvfl  er099vt",
"nFZDe9bHZH  H  0C HHHHv arar90Cn",
"yxvMzuddeq  e0 3  aaaa  lllvynfr",
"rxzznn***9r         r  nlvlfnzfr",
"0rwwr** **s  *******  srurw0wwew",
"9q99r*   * *********** rrr9999e9",
"O#OO;8    ***=======*** ,,42>:##",
".oXX$     **===---===** %%2<%%XX",
"yvvvb     **===---===** bbbbvu09",
"nHZHZ8    ***=======*** HZZZvfe9",
"vDarv*   * *********** qaaeew042",
"vGurz** **n  *******  90re999942",
"DIbzda***q0         a  rw09wlf09",
"bJlnyerr09  99 9  rrrr  909wvle0",
"O#OO&:2222  o  oo %><2> &&OO###+",
"##Oo&>344  :# oo#  :22;  &OXooOo",
"CJ09ynbCZ  zz 90b  VZb90  ldbVHb",
"CLr0znCCM vvn 00ZZ ZHb9eZ nvZZJH",
"axrrzzvv  90  909q llfran  ragxs",
"rfrrlnfz 000 r990q  lvrrll rrefr",
"fxw009r  zuy 023fln rr0009  q9eq",
"qr5959w ufre 923alj re99999 9999",
".o%:::#ooo;>264342>:O#>:OOo+oo+o",
"oo$%%%o.XX%%222222%%.o%#.XXXXXoX"
};
